<svg xmlns="http://www.w3.org/2000/svg" width="512" height="512" viewBox="0 0 512 512">
  <rect width="100%" height="100%" fill="#f6f2e8"/>
  <g fill="none" stroke="#0d2a4d" stroke-width="20" stroke-linecap="round" stroke-linejoin="round">
    <path d="M120 120h200a60 60 0 0 1 60 60v80a60 60 0 0 1-60 60H200l-60 50v-50h-20a60 60 0 0 1-60-60v-80a60 60 0 0 1 60-60z"/>
    <path d="M200 200l40 40"/>
    <circle cx="180" cy="180" r="15" fill="#0d2a4d"/>
    <circle cx="260" cy="260" r="15" fill="#0d2a4d"/>
    <circle cx="300" cy="180" r="15" fill="#0d2a4d"/>
    <path d="M180 180l120 0"/>
    <path d="M300 180l-40 80"/>
  </g>
  <text x="140" y="450" font-size="90" font-family="Arial" fill="#0d2a4d">confAI</text>
</svg>